<svg version="1.1" id="Layer_1" xmlns="http://www.w3.org/2000/svg" xmlns:xlink="http://www.w3.org/1999/xlink" x="0px" y="0px"
	 width="100%" viewBox="0 0 512 512" enable-background="new 0 0 512 512" xml:space="preserve">
<path fill="#000000" opacity="1.000000" stroke="none" 
	d="
M283.000000,513.000000 
	C188.689560,513.000000 94.879120,513.000000 1.034338,513.000000 
	C1.034338,342.397858 1.034338,171.795731 1.034338,1.096792 
	C171.560455,1.096792 342.121002,1.096792 512.840759,1.096792 
	C512.840759,171.666550 512.840759,342.333252 512.840759,513.000000 
	C436.462372,513.000000 359.981171,513.000000 283.000000,513.000000 
M253.165222,130.092682 
	C255.008041,125.250671 253.140366,121.737671 249.087540,119.141449 
	C244.513794,116.211555 239.772034,113.537727 235.264664,110.512192 
	C230.595505,107.378044 226.644974,108.227684 222.295471,111.792122 
	C215.882767,109.122490 209.470047,106.452866 203.043350,103.008713 
	C202.303635,96.675499 200.841476,94.672508 193.722244,93.228622 
	C175.673965,89.568138 157.610931,85.909691 139.441681,82.935394 
	C119.363976,79.648682 99.054359,80.703339 78.815804,81.113586 
	C75.026360,81.190399 71.912399,83.011963 71.198067,87.030975 
	C70.503357,90.939621 69.966644,94.963005 70.085152,98.914268 
	C70.553360,114.525848 70.957703,130.152969 72.033913,145.729538 
	C73.714737,170.057266 78.792076,193.740417 86.803802,216.796127 
	C98.294479,249.863449 118.395676,276.520874 146.447479,297.295746 
	C160.542084,307.734070 175.376404,316.841064 191.935989,322.956451 
	C193.500259,323.534088 195.488617,325.751373 195.515198,327.238983 
	C195.656448,335.144684 194.700989,343.087830 195.105789,350.967651 
	C196.414230,376.439209 207.924637,397.153839 227.617203,412.583496 
	C249.966354,430.094635 275.971313,434.488434 303.652008,429.245300 
	C326.015503,425.009308 345.660095,414.730469 363.817230,401.392426 
	C378.354736,390.713470 391.868256,378.743896 402.693695,364.331207 
	C417.347839,344.820953 426.656372,322.555817 432.946594,299.055817 
	C438.242676,279.269897 442.398834,259.230255 442.963196,238.692062 
	C443.409912,222.434601 443.058807,206.155334 443.071930,189.885757 
	C443.075562,185.382782 440.524597,183.262772 436.362244,182.690353 
	C434.230835,182.397232 432.073120,181.983582 429.941406,182.053528 
	C412.333160,182.631348 394.708923,182.987793 377.127258,184.040573 
	C355.957031,185.308243 335.348816,189.909668 315.136902,196.212204 
	C311.830170,197.243301 310.175140,197.004074 308.651093,193.520782 
	C301.740662,177.726273 292.321960,163.459686 281.434631,150.124496 
	C277.516907,145.325958 274.511871,144.251450 268.289978,145.797058 
	C263.209137,140.808914 258.128296,135.820755 253.165222,130.092682 
z"/>
<path fill="#3A2926" opacity="1.000000" stroke="none" 
	d="
M268.892883,146.097992 
	C274.511871,144.251450 277.516907,145.325958 281.434631,150.124496 
	C292.321960,163.459686 301.740662,177.726273 308.651093,193.520782 
	C310.175140,197.004074 311.830170,197.243301 315.136902,196.212204 
	C335.348816,189.909668 355.957031,185.308243 377.127258,184.040573 
	C394.708923,182.987793 412.333160,182.631348 429.941406,182.053528 
	C432.073120,181.983582 434.230835,182.397232 436.362244,182.690353 
	C440.524597,183.262772 443.075562,185.382782 443.071930,189.885757 
	C443.058807,206.155334 443.409912,222.434601 442.963196,238.692062 
	C442.398834,259.230255 438.242676,279.269897 432.946594,299.055817 
	C426.656372,322.555817 417.347839,344.820953 402.693695,364.331207 
	C391.868256,378.743896 378.354736,390.713470 363.817230,401.392426 
	C345.660095,414.730469 326.015503,425.009308 303.652008,429.245300 
	C275.971313,434.488434 249.966354,430.094635 227.617203,412.583496 
	C207.924637,397.153839 196.414230,376.439209 195.105789,350.967651 
	C194.700989,343.087830 195.656448,335.144684 195.515198,327.238983 
	C195.488617,325.751373 193.500259,323.534088 191.935989,322.956451 
	C175.376404,316.841064 160.542084,307.734070 146.447479,297.295746 
	C118.395676,276.520874 98.294479,249.863449 86.803802,216.796127 
	C78.792076,193.740417 73.714737,170.057266 72.033913,145.729538 
	C70.957703,130.152969 70.553360,114.525848 70.085152,98.914268 
	C69.966644,94.963005 70.503357,90.939621 71.198067,87.030975 
	C71.912399,83.011963 75.026360,81.190399 78.815804,81.113586 
	C99.054359,80.703339 119.363976,79.648682 139.441681,82.935394 
	C157.610931,85.909691 175.673965,89.568138 193.722244,93.228622 
	C200.841476,94.672508 202.303635,96.675499 202.726074,103.533447 
	C199.666580,108.355972 195.976395,109.182129 191.179245,107.715141 
	C158.189758,97.626785 124.295868,94.613892 89.979362,95.070885 
	C88.384155,95.092133 86.791199,95.282791 85.252121,95.390709 
	C85.075623,96.629936 84.918488,97.283257 84.898117,97.940804 
	C83.881165,130.762863 87.071518,163.116898 95.269348,194.974411 
	C109.345551,249.675827 143.949570,286.227173 194.998322,308.350677 
	C196.586182,309.038788 198.282104,309.477539 199.226288,309.796021 
	C205.422684,296.749298 211.306595,284.360535 217.437302,271.452118 
	C215.326233,271.452118 213.360947,271.455719 211.395691,271.451508 
	C201.731659,271.430817 192.066589,271.484589 182.404099,271.350891 
	C178.137314,271.291840 175.370270,268.951324 175.185303,264.637024 
	C175.023331,260.859253 177.185440,258.365448 181.005417,257.674744 
	C182.465927,257.410645 183.990402,257.441010 185.485870,257.438965 
	C198.316193,257.421478 211.148071,257.317871 223.975998,257.493622 
	C227.763992,257.545502 230.417068,256.506836 232.081909,251.977325 
	C222.271790,242.318237 212.311478,232.284500 202.030365,222.591019 
	C200.109390,220.779861 196.914215,219.432709 194.287323,219.398743 
	C174.128677,219.138153 153.965179,219.262238 133.803192,219.242691 
	C131.975296,219.240921 129.681519,219.724472 128.424515,218.829880 
	C126.322708,217.334030 123.682312,215.007065 123.503403,212.845001 
	C123.325417,210.694031 125.512054,207.879654 127.406570,206.192383 
	C128.632477,205.100555 131.195511,205.291763 133.161011,205.283340 
	C148.157257,205.219147 163.153931,205.255798 178.150421,205.235260 
	C179.885162,205.232880 181.619659,205.072495 184.172287,204.944260 
	C182.599350,203.175217 181.694611,202.049637 180.680161,201.033600 
	C171.143799,191.482529 161.431595,182.099991 152.119934,172.335251 
	C148.622330,168.667480 145.086761,167.007050 139.949661,167.219559 
	C130.302460,167.618652 120.625015,167.387329 110.962189,167.261368 
	C106.687904,167.205658 103.980591,164.961761 103.883675,160.519348 
	C103.786255,156.054047 106.512558,153.876938 110.695427,153.441010 
	C112.840309,153.217468 115.022804,153.338181 117.188362,153.333023 
	C121.905029,153.321762 126.621727,153.329544 132.564484,153.329544 
	C130.456497,151.049011 129.400467,149.828049 128.263046,148.688293 
	C118.258316,138.663086 108.215271,128.676010 98.236481,118.625099 
	C94.513802,114.875511 94.025246,111.148888 96.624832,108.031631 
	C99.472122,104.617325 104.093086,104.743095 107.956802,108.569603 
	C118.138420,118.653198 128.236435,128.821167 138.383240,138.940002 
	C139.587860,140.141296 140.888733,141.246063 142.957993,143.139496 
	C142.957993,135.398468 142.903320,128.929291 142.974976,122.461517 
	C143.034195,117.115623 145.741592,113.973518 150.046326,114.026894 
	C154.297180,114.079605 156.955338,117.274757 156.984390,122.630493 
	C157.040421,132.961136 156.872894,143.295303 157.112656,153.620697 
	C157.160629,155.687134 158.085693,158.233093 159.500732,159.688187 
	C170.070770,170.557388 180.858398,181.215240 191.604706,191.912338 
	C192.441833,192.745636 193.483231,193.373718 194.987320,194.523438 
	C194.987320,181.345139 194.982773,169.023270 194.989395,156.701416 
	C194.992340,151.202911 194.826233,145.694885 195.098907,140.209183 
	C195.287354,136.417847 197.593842,134.051163 201.499161,133.820923 
	C205.651794,133.576111 208.059586,135.839340 208.836288,139.789627 
	C209.121292,141.239243 208.986923,142.777817 208.987488,144.275833 
	C208.995224,164.604446 208.967987,184.933167 209.038040,205.261536 
	C209.044006,206.997467 209.082870,209.314636 210.117615,210.375717 
	C220.433578,220.954163 230.962128,231.325302 241.334717,241.659378 
	C245.188522,239.389099 246.368118,236.415314 246.358170,232.304428 
	C246.327515,219.643539 246.705750,206.981461 246.942795,194.320190 
	C247.051208,188.529343 249.638382,185.417847 254.163712,185.566635 
	C258.441040,185.707275 260.940826,188.825958 260.920502,194.305511 
	C260.890869,202.303207 260.708832,210.300232 260.643372,218.297958 
	C260.631012,219.810242 260.859192,221.324524 260.967682,222.725800 
	C273.131073,215.813461 284.752502,209.209137 296.359253,202.613144 
	C292.510559,191.150421 281.564972,173.220047 270.193939,159.730438 
	C265.208282,153.815887 265.104675,152.730179 268.892883,146.097992 
M429.270538,204.585510 
	C429.141541,201.994980 429.012543,199.404465 428.873413,196.610840 
	C426.567291,196.467697 424.758545,196.288605 422.947021,196.253036 
	C395.191284,195.707809 367.693665,198.045853 340.605225,204.213379 
	C303.018860,212.771103 269.522583,228.369522 244.819931,259.501617 
	C227.383377,281.476440 213.156113,304.881561 209.510818,333.297577 
	C206.824936,354.234741 211.681610,373.266663 225.331024,389.875824 
	C233.648560,381.685974 241.943161,373.770752 249.875793,365.508026 
	C251.586075,363.726562 252.836212,360.701874 252.864517,358.233368 
	C253.099518,337.741425 252.992081,317.245667 253.001129,296.751038 
	C253.004120,289.981415 255.295090,286.834351 260.110992,286.905457 
	C264.878723,286.975861 266.996155,290.054291 266.999725,296.979645 
	C267.007507,312.142334 267.002258,327.305023 267.002319,342.467712 
	C267.002319,344.054504 267.002289,345.641296 267.002289,347.679382 
	C268.039948,347.135162 268.521332,347.008301 268.826538,346.704437 
	C280.280060,335.301971 291.782013,323.946228 303.067383,312.379272 
	C304.342529,311.072327 304.905212,308.565002 304.917358,306.608856 
	C305.046722,285.781769 304.950531,264.953339 305.067688,244.126129 
	C305.080139,241.911743 305.356873,238.881226 306.754883,237.693832 
	C308.610931,236.117401 311.833679,235.069016 314.209656,235.442886 
	C317.646851,235.983780 319.015106,239.131210 319.008728,242.680115 
	C318.982635,257.176270 319.000580,271.672485 319.002197,286.168671 
	C319.002533,289.239502 319.002258,292.310333 319.002258,296.777588 
	C332.023132,283.718811 344.027527,271.762756 355.868408,259.646851 
	C356.820679,258.672455 356.936981,256.600708 356.950592,255.034668 
	C357.041870,244.538223 357.017670,234.040543 356.992188,223.543365 
	C356.982666,219.622681 358.376404,216.689484 362.434082,215.668579 
	C367.165680,214.478104 370.870789,217.750809 370.969574,223.357727 
	C371.087708,230.061783 370.997467,236.769485 370.997467,243.475616 
	C371.492493,243.687149 371.987488,243.898682 372.482513,244.110229 
	C373.498840,242.794617 374.389221,241.353989 375.551361,240.183121 
	C385.058960,230.604111 394.616791,221.074951 404.160889,211.532227 
	C404.985382,210.707840 405.782074,209.849960 406.658722,209.084412 
	C410.062012,206.112488 414.204102,206.008286 416.957397,208.787796 
	C419.785095,211.642456 419.811920,215.722900 416.565552,219.022827 
	C406.283051,229.475098 395.859589,239.788651 385.509674,250.174805 
	C384.329590,251.359024 383.270203,252.663528 381.391144,254.767319 
	C389.391357,254.767319 396.026733,254.659317 402.656738,254.801910 
	C407.840210,254.913422 410.780426,258.057465 410.107697,262.610687 
	C409.407715,267.348450 406.024811,268.726868 401.788422,268.739502 
	C391.791138,268.769318 381.791412,268.874664 371.797577,268.687836 
	C368.386566,268.624084 365.896240,269.524506 363.469818,272.039062 
	C355.372345,280.430603 347.075104,288.632782 338.730591,296.780701 
	C335.807281,299.635193 332.525299,302.122375 329.407104,304.777313 
	C329.786560,305.372223 330.166016,305.967163 330.545471,306.562103 
	C332.318176,306.562103 334.090881,306.562073 335.863586,306.562103 
	C350.693024,306.562469 365.522491,306.549500 380.351868,306.580322 
	C382.176056,306.584106 384.545746,306.152252 385.704620,307.097198 
	C387.806885,308.811340 390.369568,311.336090 390.514526,313.661255 
	C390.641541,315.697968 388.055664,318.378754 386.017578,319.907928 
	C384.667969,320.920563 382.170441,320.544586 380.186340,320.548248 
	C360.358276,320.584595 340.528687,320.695221 320.703094,320.471161 
	C316.479889,320.423431 313.592072,321.747467 310.711456,324.721954 
	C301.091705,334.655090 291.201019,344.325623 281.427826,354.110443 
	C280.307098,355.232483 279.272736,356.440796 277.321899,358.562103 
	C280.289703,358.562103 282.062256,358.561829 283.834808,358.562134 
	C299.330750,358.564819 314.826874,358.523499 330.322479,358.594299 
	C335.758270,358.619141 338.921265,361.311615 338.909271,365.536957 
	C338.897400,369.721344 335.701874,372.336060 330.291504,372.551971 
	C328.960510,372.605103 327.625885,372.570129 326.292908,372.570190 
	C309.130737,372.570953 291.948853,373.058502 274.814758,372.365173 
	C266.237549,372.018066 260.044220,374.301544 254.482101,380.855011 
	C248.721069,387.642792 241.911667,393.540833 235.561691,399.827179 
	C236.443649,400.769470 236.742691,401.180756 237.127594,401.482544 
	C238.175385,402.304321 239.234100,403.116882 240.332916,403.868164 
	C259.575531,417.024994 280.939697,420.355682 302.874451,414.183594 
	C352.822937,400.128906 389.608948,369.830750 409.951782,321.532959 
	C425.531403,284.544006 429.528778,245.338837 429.270538,204.585510 
z"/>
<path fill="#F16D53" opacity="1.000000" stroke="none" 
	d="
M268.591431,145.947525 
	C265.104675,152.730179 265.208282,153.815887 270.193939,159.730438 
	C281.564972,173.220047 292.510559,191.150421 296.359253,202.613144 
	C284.752502,209.209137 273.131073,215.813461 260.967682,222.725800 
	C260.859192,221.324524 260.631012,219.810242 260.643372,218.297958 
	C260.708832,210.300232 260.890869,202.303207 260.920502,194.305511 
	C260.940826,188.825958 258.441040,185.707275 254.163712,185.566635 
	C249.638382,185.417847 247.051208,188.529343 246.942795,194.320190 
	C246.705750,206.981461 246.327515,219.643539 246.358170,232.304428 
	C246.368118,236.415314 245.188522,239.389099 241.334717,241.659378 
	C230.962128,231.325302 220.433578,220.954163 210.117615,210.375717 
	C209.082870,209.314636 209.044006,206.997467 209.038040,205.261536 
	C208.967987,184.933167 208.995224,164.604446 208.987488,144.275833 
	C208.986923,142.777817 209.121292,141.239243 208.836288,139.789627 
	C208.059586,135.839340 205.651794,133.576111 201.499161,133.820923 
	C197.593842,134.051163 195.287354,136.417847 195.098907,140.209183 
	C194.826233,145.694885 194.992340,151.202911 194.989395,156.701416 
	C194.982773,169.023270 194.987320,181.345139 194.987320,194.523438 
	C193.483231,193.373718 192.441833,192.745636 191.604706,191.912338 
	C180.858398,181.215240 170.070770,170.557388 159.500732,159.688187 
	C158.085693,158.233093 157.160629,155.687134 157.112656,153.620697 
	C156.872894,143.295303 157.040421,132.961136 156.984390,122.630493 
	C156.955338,117.274757 154.297180,114.079605 150.046326,114.026894 
	C145.741592,113.973518 143.034195,117.115623 142.974976,122.461517 
	C142.903320,128.929291 142.957993,135.398468 142.957993,143.139496 
	C140.888733,141.246063 139.587860,140.141296 138.383240,138.940002 
	C128.236435,128.821167 118.138420,118.653198 107.956802,108.569603 
	C104.093086,104.743095 99.472122,104.617325 96.624832,108.031631 
	C94.025246,111.148888 94.513802,114.875511 98.236481,118.625099 
	C108.215271,128.676010 118.258316,138.663086 128.263046,148.688293 
	C129.400467,149.828049 130.456497,151.049011 132.564484,153.329544 
	C126.621727,153.329544 121.905029,153.321762 117.188362,153.333023 
	C115.022804,153.338181 112.840309,153.217468 110.695427,153.441010 
	C106.512558,153.876938 103.786255,156.054047 103.883675,160.519348 
	C103.980591,164.961761 106.687904,167.205658 110.962189,167.261368 
	C120.625015,167.387329 130.302460,167.618652 139.949661,167.219559 
	C145.086761,167.007050 148.622330,168.667480 152.119934,172.335251 
	C161.431595,182.099991 171.143799,191.482529 180.680161,201.033600 
	C181.694611,202.049637 182.599350,203.175217 184.172287,204.944260 
	C181.619659,205.072495 179.885162,205.232880 178.150421,205.235260 
	C163.153931,205.255798 148.157257,205.219147 133.161011,205.283340 
	C131.195511,205.291763 128.632477,205.100555 127.406570,206.192383 
	C125.512054,207.879654 123.325417,210.694031 123.503403,212.845001 
	C123.682312,215.007065 126.322708,217.334030 128.424515,218.829880 
	C129.681519,219.724472 131.975296,219.240921 133.803192,219.242691 
	C153.965179,219.262238 174.128677,219.138153 194.287323,219.398743 
	C196.914215,219.432709 200.109390,220.779861 202.030365,222.591019 
	C212.311478,232.284500 222.271790,242.318237 232.081909,251.977325 
	C230.417068,256.506836 227.763992,257.545502 223.975998,257.493622 
	C211.148071,257.317871 198.316193,257.421478 185.485870,257.438965 
	C183.990402,257.441010 182.465927,257.410645 181.005417,257.674744 
	C177.185440,258.365448 175.023331,260.859253 175.185303,264.637024 
	C175.370270,268.951324 178.137314,271.291840 182.404099,271.350891 
	C192.066589,271.484589 201.731659,271.430817 211.395691,271.451508 
	C213.360947,271.455719 215.326233,271.452118 217.437302,271.452118 
	C211.306595,284.360535 205.422684,296.749298 199.226288,309.796021 
	C198.282104,309.477539 196.586182,309.038788 194.998322,308.350677 
	C143.949570,286.227173 109.345551,249.675827 95.269348,194.974411 
	C87.071518,163.116898 83.881165,130.762863 84.898117,97.940804 
	C84.918488,97.283257 85.075623,96.629936 85.252121,95.390709 
	C86.791199,95.282791 88.384155,95.092133 89.979362,95.070885 
	C124.295868,94.613892 158.189758,97.626785 191.179245,107.715141 
	C195.976395,109.182129 199.666580,108.355972 202.733063,103.920715 
	C209.470047,106.452866 215.882767,109.122490 222.675171,112.348358 
	C221.986786,117.811279 223.798920,121.093315 228.309357,123.374199 
	C231.980591,125.230698 235.623505,127.351517 238.788269,129.952255 
	C243.507217,133.830200 248.032684,134.705994 253.047470,130.832611 
	C258.128296,135.820755 263.209137,140.808914 268.591431,145.947525 
z"/>
<path fill="#3A2925" opacity="1.000000" stroke="none" 
	d="
M253.106354,130.462646 
	C248.032684,134.705994 243.507217,133.830200 238.788269,129.952255 
	C235.623505,127.351517 231.980591,125.230698 228.309357,123.374199 
	C223.798920,121.093315 221.986786,117.811279 223.007904,112.481384 
	C226.644974,108.227684 230.595505,107.378044 235.264664,110.512192 
	C239.772034,113.537727 244.513794,116.211555 249.087540,119.141449 
	C253.140366,121.737671 255.008041,125.250671 253.106354,130.462646 
z"/>
<path fill="#F69E63" opacity="1.000000" stroke="none" 
	d="
M429.281860,205.075439 
	C429.528778,245.338837 425.531403,284.544006 409.951782,321.532959 
	C389.608948,369.830750 352.822937,400.128906 302.874451,414.183594 
	C280.939697,420.355682 259.575531,417.024994 240.332916,403.868164 
	C239.234100,403.116882 238.175385,402.304321 237.127594,401.482544 
	C236.742691,401.180756 236.443649,400.769470 235.561691,399.827179 
	C241.911667,393.540833 248.721069,387.642792 254.482101,380.855011 
	C260.044220,374.301544 266.237549,372.018066 274.814758,372.365173 
	C291.948853,373.058502 309.130737,372.570953 326.292908,372.570190 
	C327.625885,372.570129 328.960510,372.605103 330.291504,372.551971 
	C335.701874,372.336060 338.897400,369.721344 338.909271,365.536957 
	C338.921265,361.311615 335.758270,358.619141 330.322479,358.594299 
	C314.826874,358.523499 299.330750,358.564819 283.834808,358.562134 
	C282.062256,358.561829 280.289703,358.562103 277.321899,358.562103 
	C279.272736,356.440796 280.307098,355.232483 281.427826,354.110443 
	C291.201019,344.325623 301.091705,334.655090 310.711456,324.721954 
	C313.592072,321.747467 316.479889,320.423431 320.703094,320.471161 
	C340.528687,320.695221 360.358276,320.584595 380.186340,320.548248 
	C382.170441,320.544586 384.667969,320.920563 386.017578,319.907928 
	C388.055664,318.378754 390.641541,315.697968 390.514526,313.661255 
	C390.369568,311.336090 387.806885,308.811340 385.704620,307.097198 
	C384.545746,306.152252 382.176056,306.584106 380.351868,306.580322 
	C365.522491,306.549500 350.693024,306.562469 335.863586,306.562103 
	C334.090881,306.562073 332.318176,306.562103 330.545471,306.562103 
	C330.166016,305.967163 329.786560,305.372223 329.407104,304.777313 
	C332.525299,302.122375 335.807281,299.635193 338.730591,296.780701 
	C347.075104,288.632782 355.372345,280.430603 363.469818,272.039062 
	C365.896240,269.524506 368.386566,268.624084 371.797577,268.687836 
	C381.791412,268.874664 391.791138,268.769318 401.788422,268.739502 
	C406.024811,268.726868 409.407715,267.348450 410.107697,262.610687 
	C410.780426,258.057465 407.840210,254.913422 402.656738,254.801910 
	C396.026733,254.659317 389.391357,254.767319 381.391144,254.767319 
	C383.270203,252.663528 384.329590,251.359024 385.509674,250.174805 
	C395.859589,239.788651 406.283051,229.475098 416.565552,219.022827 
	C419.811920,215.722900 419.785095,211.642456 416.957397,208.787796 
	C414.204102,206.008286 410.062012,206.112488 406.658722,209.084412 
	C405.782074,209.849960 404.985382,210.707840 404.160889,211.532227 
	C394.616791,221.074951 385.058960,230.604111 375.551361,240.183121 
	C374.389221,241.353989 373.498840,242.794617 372.482513,244.110229 
	C371.987488,243.898682 371.492493,243.687149 370.997467,243.475616 
	C370.997467,236.769485 371.087708,230.061783 370.969574,223.357727 
	C370.870789,217.750809 367.165680,214.478104 362.434082,215.668579 
	C358.376404,216.689484 356.982666,219.622681 356.992188,223.543365 
	C357.017670,234.040543 357.041870,244.538223 356.950592,255.034668 
	C356.936981,256.600708 356.820679,258.672455 355.868408,259.646851 
	C344.027527,271.762756 332.023132,283.718811 319.002258,296.777588 
	C319.002258,292.310333 319.002533,289.239502 319.002197,286.168671 
	C319.000580,271.672485 318.982635,257.176270 319.008728,242.680115 
	C319.015106,239.131210 317.646851,235.983780 314.209656,235.442886 
	C311.833679,235.069016 308.610931,236.117401 306.754883,237.693832 
	C305.356873,238.881226 305.080139,241.911743 305.067688,244.126129 
	C304.950531,264.953339 305.046722,285.781769 304.917358,306.608856 
	C304.905212,308.565002 304.342529,311.072327 303.067383,312.379272 
	C291.782013,323.946228 280.280060,335.301971 268.826538,346.704437 
	C268.521332,347.008301 268.039948,347.135162 267.002289,347.679382 
	C267.002289,345.641296 267.002319,344.054504 267.002319,342.467712 
	C267.002258,327.305023 267.007507,312.142334 266.999725,296.979645 
	C266.996155,290.054291 264.878723,286.975861 260.110992,286.905457 
	C255.295090,286.834351 253.004120,289.981415 253.001129,296.751038 
	C252.992081,317.245667 253.099518,337.741425 252.864517,358.233368 
	C252.836212,360.701874 251.586075,363.726562 249.875793,365.508026 
	C241.943161,373.770752 233.648560,381.685974 225.331024,389.875824 
	C211.681610,373.266663 206.824936,354.234741 209.510818,333.297577 
	C213.156113,304.881561 227.383377,281.476440 244.819931,259.501617 
	C269.522583,228.369522 303.018860,212.771103 340.605225,204.213379 
	C367.693665,198.045853 395.191284,195.707809 422.947021,196.253036 
	C424.758545,196.288605 426.567291,196.467697 428.873413,196.610840 
	C429.012543,199.404465 429.141541,201.994980 429.281860,205.075439 
z"/>
</svg>